<svg xmlns="http://www.w3.org/2000/svg" width="154.3" height="31.83" viewBox="0 0 154.3 31.83">
  <g id="Path_3" data-name="Path 3" fill="#fff">
    <path d="M148.644,31.329l.111-16.465a2.7,2.7,0,0,0-.914-1.853,4.837,4.837,0,0,0-2.448-.527l-17.27-.058-41.146-.137a12.971,12.971,0,0,1-2.053-.371,12.969,12.969,0,0,1-1.955-.69,12.973,12.973,0,0,1-1.82-.993A12.968,12.968,0,0,1,79.5,8.956a10.969,10.969,0,0,0-6.9-3.121H.5V.5H153.8V31.33Z" stroke="none"/>
    <path d="M 154.2999877929688 31.830078125 L 154.2999877929688 31.32998657226562 L 154.2999877929688 0.5 L 154.2999877929688 0 L 153.7999877929688 0 L 0.5 0 L 0 0 L 0 0.5 L 0 5.834991455078125 L 0 6.334991455078125 L 0.5 6.334991455078125 L 72.58160400390625 6.334991455078125 C 73.19912719726562 6.380767822265625 73.8079833984375 6.481170654296875 74.40151977539062 6.633148193359375 C 74.99508666992188 6.78515625 75.57333374023438 6.988739013671875 76.12954711914062 7.24090576171875 C 76.68576049804688 7.493072509765625 77.219970703125 7.793792724609375 77.72549438476562 8.140045166015625 C 78.23101806640625 8.486297607421875 78.70785522460938 8.878082275390625 79.14932250976562 9.312408447265625 L 79.1558837890625 9.318878173828125 L 79.16268920898438 9.325103759765625 C 79.69583129882812 9.81231689453125 80.26803588867188 10.25454711914062 80.87136840820312 10.64828491210938 C 81.4747314453125 11.04202270507812 82.10922241210938 11.38723754882812 82.76690673828125 11.68038940429688 C 83.42459106445312 11.97357177734375 84.10546875 12.21469116210938 84.80160522460938 12.40023803710938 C 85.49777221679688 12.58578491210938 86.20919799804688 12.71575927734375 86.92794799804688 12.78659057617188 L 86.95156860351562 12.7889404296875 L 86.975341796875 12.78900146484375 L 128.1213073730469 12.92599487304688 L 145.3913116455078 12.98406982421875 L 145.4045867919922 12.98410034179688 L 145.4178771972656 12.98345947265625 C 145.4357757568359 12.98257446289062 145.4537353515625 12.98178100585938 145.4717407226562 12.98110961914062 C 145.4897308349609 12.98043823242188 145.5077514648438 12.9798583984375 145.5257873535156 12.97940063476562 C 145.5438232421875 12.97897338867188 145.5618591308594 12.9786376953125 145.5798645019531 12.97842407226562 C 145.5978698730469 12.97817993164062 145.6158447265625 12.97805786132812 145.6337738037109 12.97805786132812 C 145.7997741699219 12.97805786132812 145.9657440185547 12.98776245117188 146.130615234375 13.00692749023438 C 146.2954711914062 13.02606201171875 146.459228515625 13.05465698242188 146.620849609375 13.09246826171875 C 146.782470703125 13.13027954101562 146.9419403076172 13.17724609375 147.0982055664062 13.23318481445312 C 147.2544708251953 13.28909301757812 147.4075317382812 13.35394287109375 147.5563354492188 13.427490234375 C 147.6589660644531 13.52249145507812 147.7513732910156 13.62576293945312 147.8329010009766 13.73602294921875 C 147.9144287109375 13.84628295898438 147.9850769042969 13.96347045898438 148.0441741943359 14.0863037109375 C 148.103271484375 14.20913696289062 148.1508178710938 14.33755493164062 148.1861572265625 14.47024536132812 C 148.2214965820312 14.6029052734375 148.24462890625 14.73983764648438 148.2548828125 14.87969970703125 L 148.1440124511719 31.32562255859375 L 148.1406097412109 31.82891845703125 L 148.6438903808594 31.82901000976562 L 153.7998962402344 31.82998657226562 L 154.2999877929688 31.830078125 Z M 153.2999877929688 1 L 153.2999877929688 30.82989501953125 L 149.1473693847656 30.8291015625 L 149.2549743652344 14.86740112304688 L 149.2551116943359 14.84927368164062 L 149.2539215087891 14.83123779296875 C 149.2399139404297 14.61807250976562 149.2053527832031 14.409423828125 149.1513671875 14.20758056640625 C 149.0973815917969 14.0057373046875 149.0239715576172 13.81069946289062 148.9322204589844 13.62469482421875 C 148.8404693603516 13.43869018554688 148.7303924560547 13.26171875 148.6030883789062 13.09603881835938 C 148.4757995605469 12.93035888671875 148.3312683105469 12.77597045898438 148.1706390380859 12.63510131835938 L 148.1241607666016 12.59429931640625 L 148.0691375732422 12.56610107421875 C 147.881591796875 12.46994018554688 147.6883087158203 12.38510131835938 147.4906921386719 12.31192016601562 C 147.2930908203125 12.23876953125 147.0911407470703 12.17727661132812 146.8862915039062 12.12783813476562 C 146.6814422607422 12.078369140625 146.4736938476562 12.04092407226562 146.2644653320312 12.01583862304688 C 146.0552368164062 11.99075317382812 145.8445434570312 11.97805786132812 145.6337738037109 11.97805786132812 C 145.6128692626953 11.97805786132812 145.5918884277344 11.97817993164062 145.5708923339844 11.97842407226562 C 145.5498962402344 11.97866821289062 145.5288543701172 11.97903442382812 145.5078125 11.97955322265625 C 145.4867706298828 11.98007202148438 145.4657287597656 11.98068237304688 145.4447174072266 11.98141479492188 C 145.4237060546875 11.982177734375 145.4027404785156 11.98306274414062 145.3818359375 11.98403930664062 L 128.1246490478516 11.92599487304688 L 87.00253295898438 11.78909301757812 C 86.33999633789062 11.72250366210938 85.68426513671875 11.60165405273438 85.04263305664062 11.42977905273438 C 84.40097045898438 11.25790405273438 83.77337646484375 11.03500366210938 83.16714477539062 10.76434326171875 C 82.56088256835938 10.49368286132812 81.97598266601562 10.17520141601562 81.419677734375 9.81219482421875 C 80.86337280273438 9.449188232421875 80.33566284179688 9.041656494140625 79.84378051757812 8.592803955078125 C 79.35919189453125 8.116851806640625 78.83578491210938 7.6876220703125 78.28091430664062 7.308441162109375 C 77.72607421875 6.929229736328125 77.13973999023438 6.600067138671875 76.52932739257812 6.324249267578125 C 75.91888427734375 6.048431396484375 75.28433227539062 5.82598876953125 74.63302612304688 5.660247802734375 C 73.98171997070312 5.494476318359375 73.31362915039062 5.385406494140625 72.63613891601562 5.3363037109375 L 72.61810302734375 5.334991455078125 L 72.60000610351562 5.334991455078125 L 1 5.334991455078125 L 1 1 L 153.2999877929688 1 Z" stroke="none" fill="#fff"/>
  </g>
</svg>
